<?xml version="1.0" encoding="UTF-8" standalone="no"?>
<!-- Created with Inkscape (http://www.inkscape.org/) -->

<svg
   version="1.1"
   id="svg2"
   width="1085.0206"
   height="765.4458"
   viewBox="0 0 1085.0206 765.4458"
   sodipodi:docname="customer care n care.svg"
   xml:space="preserve"
   inkscape:version="1.2.2 (732a01da63, 2022-12-09)"
   xmlns:inkscape="http://www.inkscape.org/namespaces/inkscape"
   xmlns:sodipodi="http://sodipodi.sourceforge.net/DTD/sodipodi-0.dtd"
   xmlns="http://www.w3.org/2000/svg"
   xmlns:svg="http://www.w3.org/2000/svg"><defs
     id="defs6" /><sodipodi:namedview
     id="namedview4"
     pagecolor="#505050"
     bordercolor="#eeeeee"
     borderopacity="1"
     inkscape:showpageshadow="0"
     inkscape:pageopacity="0"
     inkscape:pagecheckerboard="0"
     inkscape:deskcolor="#505050"
     showgrid="false"
     inkscape:zoom="0.37135056"
     inkscape:cx="779.58682"
     inkscape:cy="57.896776"
     inkscape:window-width="1920"
     inkscape:window-height="991"
     inkscape:window-x="-9"
     inkscape:window-y="-9"
     inkscape:window-maximized="1"
     inkscape:current-layer="g10" /><g
     id="g10"
     inkscape:groupmode="layer"
     inkscape:label="Page 1"
     transform="matrix(1.3333333,0,0,-1.3333333,-716.30426,733.31189)"><path
       style="fill:#e0f3fd;fill-opacity:1;stroke:none;stroke-width:6;stroke-linecap:round;stroke-linejoin:round;stroke-dashoffset:30.918"
       d="M 761.40992,39.518675 C 719.55203,47.272432 649.78163,47.212728 618.01444,73.852814 569.57832,121.58226 565.44381,204.3157 603.87685,253.60211 c 29.76451,49.18654 90.17912,73.29981 116.13016,106.03189 25.95105,32.73207 2.9926,88.12815 29.285,124.20878 26.27803,33.16159 132.10553,52.5414 190.85741,54.53069 58.75188,1.98929 149.33468,-0.10641 186.81808,-68.66827 37.4834,-68.56186 100.5537,-60.89428 141.3758,-88.86482 31.4264,-24.74497 24.7007,-64.48598 14.1376,-113.10069 -10.5631,-48.61471 47.1797,-74.11744 52.511,-125.21861 5.3313,-51.101167 -77.5161,-100.345382 -131.2775,-107.041717 -42.4517,-4.859481 -99.409,19.719424 -141.3759,22.216208 -41.9669,2.496784 -76.50065,1.865062 -109.06132,-4.039313 -32.56067,-5.904375 -52.077,-25.147475 -84.82553,-28.275166 -32.74853,-3.127691 -65.18384,6.383826 -107.04173,14.137583 z"
       id="path95246"
       sodipodi:nodetypes="zcczczzczzczzzz" /><path
       style="fill:#c7e6f6;fill-opacity:1;stroke:none;stroke-width:6;stroke-linecap:round;stroke-linejoin:round;stroke-dashoffset:30.918;stroke-opacity:1"
       d="m 639.79406,95.844389 -5.71244,175.657751 51.41202,5.71244 2.85623,-114.24893 14.28112,-1.42811 -11.4249,159.94851 34.27468,11.42489 14.28112,-12.853 2.85622,-109.96461 7.14056,-2.85622 v 135.67061 l 39.98715,11.4249 14.28113,-11.4249 -4.28438,-137.09873 15.70928,-1.4281 -2.85623,87.11481 24.27788,7.14056 h 12.85297 l -4.2843,61.40881 24.27788,18.56545 29.99032,-8.56867 -1.42807,-24.2779 18.56542,11.42489 V 472.8659 l 45.69961,22.84978 61.40877,-19.99356 -7.1405,-111.39272 48.5558,-22.84978 1.4281,-59.9807 38.559,-12.853 -2.8562,37.1309 42.8434,15.70923 31.4184,-15.70923 1.4281,-27.13412 18.5654,-2.85623 -1.428,55.69636 35.7027,12.85301 18.5655,-15.70923 -1.4281,-101.39593 24.2779,-9.99679 2.8562,-24.2779 9.9968,-7.14056 v 21.42168 l 17.1374,-1.42812 11.2948,-16.50991 7.2706,-63.46434 -0.6708,-27.213325 c -23.9322,-25.76116 -52.4939,-45.466893 -88.5429,-56.25074 L 689.77798,37.291813 Z"
       id="path123024"
       sodipodi:nodetypes="cccccccccccccccccccccccccccccccccccccccccccccccccc" /><path
       style="fill:#ffb380;fill-opacity:1;stroke:none;stroke-width:6;stroke-linecap:round;stroke-linejoin:round;stroke-dashoffset:30.918"
       d="M 539.24789,29.420397 662.44685,120.30487 1215.8323,108.18694 1254.2058,-0.87442086 Z"
       id="path98932" /><path
       style="fill:#808080;fill-opacity:1;stroke:none;stroke-width:6;stroke-linecap:round;stroke-linejoin:round;stroke-dashoffset:30.918"
       d="m 802.15572,63.091223 -3.02949,-32.819393 22.21621,-1.009823 -2.52457,35.848876 z"
       id="path86597"
       inkscape:export-filename="..\..\Users\user\Pictures\admin-customer-care.svg"
       inkscape:export-xdpi="96"
       inkscape:export-ydpi="96" /><path
       style="fill:#e07c66;fill-opacity:1;stroke:none;stroke-width:6;stroke-linecap:round;stroke-linejoin:round;stroke-dashoffset:30.918"
       d="m 1088.2446,156.90668 21.4216,-48.55581 39.9872,12.85301 -22.8498,51.41202 z"
       id="path23796" /><path
       style="fill:#ff947c;fill-opacity:1;stroke:none;stroke-width:6;stroke-linecap:round;stroke-linejoin:round;stroke-dashoffset:30.918"
       d="m 948.2896,383.97644 c -2.24816,-17.16251 4.61714,-47.11882 11.42489,-59.98069 6.80775,-12.86187 18.56545,-18.56545 18.56545,-18.56545 l -2.85622,-27.13412 41.41528,11.42489 -2.8563,29.99035 c 0,0 20.3149,10.42654 25.7061,21.42167 5.3912,10.99513 5.5003,25.83871 1.4281,39.98713 -4.0723,14.14842 -13.1885,32.32426 -27.1342,39.98713 -13.9456,7.66287 -34.31549,9.21103 -47.12765,1.42811 -12.81216,-7.78292 -16.31729,-21.39651 -18.56545,-38.55902 z"
       id="path22342"
       sodipodi:nodetypes="zzcccczzzzz" /><path
       style="fill:#e07c66;fill-opacity:1;stroke:none;stroke-width:6;stroke-linecap:round;stroke-linejoin:round;stroke-dashoffset:30.918"
       d="m 874.16112,179.12289 -14.93213,-68.24745 42.5117,-9.3632 7.94996,72.11349 z"
       id="path57146"
       sodipodi:nodetypes="ccccc" /><path
       style="fill:#e07c66;fill-opacity:1;stroke:none;stroke-width:6;stroke-linecap:round;stroke-linejoin:round;stroke-dashoffset:30.918"
       d="m 978.27994,305.07327 c 0,0 3.666,-0.35946 6.78354,0.35703 3.11754,0.71649 8.61735,3.46225 11.42489,4.81988 2.80754,1.35763 5.53393,3.03474 5.53393,3.03474 l -6.60501,-26.06305 -8.74719,-6.4265 -9.81827,9.63975 z"
       id="path77565"
       sodipodi:nodetypes="czzccccc" /><path
       style="fill:#917cff;fill-opacity:1;stroke:none;stroke-width:6;stroke-linecap:round;stroke-linejoin:round;stroke-dashoffset:30.918"
       d="m 986.84861,282.58051 35.26969,27.7108 14.7142,-10.57346 c 0,0 51.9743,-14.80103 71.4056,-38.55902 19.4313,-23.75799 29.9904,-98.53971 29.9904,-98.53971 l -67.1213,-28.56223 -6.1876,16.80314 -9.5216,-49.64971 -137.09875,-4.284335 -5.46743,62.965585 -51.65704,14.15244 48.02115,92.9139 34.70637,16.6994 19.1171,7.13572 5.26376,10.35293 z"
       id="path17984"
       sodipodi:nodetypes="ccczcccccccccccc" /><path
       style="fill:#7563d5;fill-opacity:1;stroke:none;stroke-width:6;stroke-linecap:round;stroke-linejoin:round;stroke-dashoffset:30.918"
       d="m 1080.0105,138.48177 -30.2948,75.73706 -31.8096,-107.54663 41.403,-1.51474 5.0491,45.94715 6.059,-18.17689 z"
       id="path72414"
       sodipodi:nodetypes="ccccccc" /><path
       style="fill:#ff947c;fill-opacity:1;stroke:none;stroke-width:6;stroke-linecap:round;stroke-linejoin:round;stroke-dashoffset:30.918"
       d="m 1049.094,118.24616 c 6.7377,7.79298 55.3397,25.16502 73.4252,20.09506 18.0856,-5.06996 33.8931,-11.85823 31.4185,-25.70601 -2.4746,-13.847775 -22.6421,-11.52764 -41.4152,-14.281115 -18.7732,-2.75348 -48.9331,-5.529829 -62.9087,0.33166 -13.9757,5.861485 -7.2575,11.767435 -0.5198,19.560405 z"
       id="path25976"
       sodipodi:nodetypes="zzzzzz" /><path
       style="fill:#ff947c;fill-opacity:1;stroke:none;stroke-width:6;stroke-linecap:round;stroke-linejoin:round;stroke-dashoffset:30.918"
       d="m 1051.5468,118.85256 c 0,0 -26.0503,4.61064 -36.1359,2.35132 -10.0857,-2.25932 -28.09235,-8.02767 -28.56229,-17.13734 -0.46994,-9.109665 9.9789,-10.23081 17.13739,-12.853003 7.1584,-2.622193 14.2034,-3.764108 24.2779,-1.428113 10.0744,2.335995 28.3023,15.031046 28.3023,15.031046 z"
       id="path27430"
       sodipodi:nodetypes="czzzzcc" /><path
       style="fill:#38383c;fill-opacity:1;stroke:none;stroke-width:6;stroke-linecap:round;stroke-linejoin:round;stroke-dashoffset:30.918"
       d="m 937.62484,393.46321 c 1.60942,-5.09148 6.44782,-15.67781 15.14742,-17.16707 8.6996,-1.48926 18.04074,12.61328 26.25551,14.6425 8.21477,2.02922 13.63267,-0.33651 20.70146,-0.50491 7.06877,-0.1684 16.56417,1.50993 21.71127,-0.50491 5.1471,-2.01484 6.9681,-3.99382 8.5836,-7.57371 1.6155,-3.57989 -0.4662,-6.61783 0,-12.11793 0.4661,-5.5001 0.8489,-16.07031 3.5344,-20.70146 2.6854,-4.63115 5.9279,-5.98948 8.5835,-7.0688 2.6556,-1.07932 0.7697,-3.99259 6.059,-0.50491 5.2892,3.48768 9.2124,16.94789 10.0982,30.29482 0.8859,13.34693 -3.0359,38.11472 -9.0884,47.4619 -6.0526,9.34718 -8.4206,7.34469 -15.1474,10.60319 -6.7269,3.2585 -16.9267,6.17522 -25.2457,7.5737 -8.319,1.39848 -16.4456,2.16331 -24.23588,1.00983 -7.79028,-1.15348 -14.53363,-3.80345 -21.71129,-7.57371 -7.17766,-3.77026 -16.9819,-9.66819 -20.70147,-15.14741 -3.71957,-5.47922 -7.47443,-9.11138 -8.17575,-12.91861 -0.70133,-3.80724 2.02211,-4.71103 3.63153,-9.80251 z"
       id="path44287"
       sodipodi:nodetypes="zzzzzzzzzzzzzzzzzzz" /><path
       style="fill:#917cff;fill-opacity:1;stroke:none;stroke-width:6;stroke-linecap:round;stroke-linejoin:round;stroke-dashoffset:30.918"
       d="m 1042.6469,378.3158 c -3.7267,-3.9131 -5.3437,-10.93919 -5.0491,-16.66216 0.2945,-5.72297 2.8495,-12.24909 6.5639,-15.65232 3.7143,-3.40323 6.944,-6.52688 12.6228,-4.03931 5.6788,2.48757 10.2461,14.03358 10.0983,21.71129 -0.1478,7.67771 -4.3426,17.41299 -10.0983,19.69164 -5.7557,2.27865 -10.4109,-1.13604 -14.1376,-5.04914 z"
       id="path41381"
       sodipodi:nodetypes="zzzzzzz" /><path
       style="fill:#917cff;fill-opacity:1;stroke:none;stroke-width:6;stroke-linecap:round;stroke-linejoin:round;stroke-dashoffset:30.918"
       d="m 1044.1616,380.84037 c 0,0 -3.7177,21.52999 -9.5933,30.79974 -5.8756,9.26975 -13.9432,18.77944 -24.7408,22.72112 -10.7976,3.94168 -26.93107,-0.0953 -35.34396,-1.51474 -8.41289,-1.41941 -15.1474,-4.54423 -15.1474,-4.54423 l -3.02949,3.02948 c 0,0 9.48974,5.47849 17.67198,7.57371 8.18224,2.09522 21.58369,4.21553 31.30467,3.02948 9.7209,-1.18605 19.1852,-3.72652 25.7506,-9.08844 6.5654,-5.36192 8.9969,-13.15108 12.1179,-20.19655 3.1211,-7.04547 5.1255,-15.70737 6.5639,-21.7113 1.4384,-6.00393 2.5246,-14.13758 2.5246,-14.13758 l -6.059,-0.50492 z"
       id="path54966"
       sodipodi:nodetypes="czzzcczzzzzccc" /><path
       style="fill:#ff947c;fill-opacity:1;stroke:none;stroke-width:6;stroke-linecap:round;stroke-linejoin:round;stroke-dashoffset:30.918"
       d="m 848.13831,119.76091 c 6.73771,7.79298 12.42202,15.06674 30.50758,9.99678 18.08556,-5.06996 33.89308,-11.85823 31.41846,-25.70601 -2.47462,-13.847779 -22.64208,-11.527639 -41.41524,-14.281119 -18.77316,-2.75348 -8.53996,-1.995433 -22.51559,3.866056 -13.97563,5.861498 -4.73291,18.331323 2.00479,26.124293 z"
       id="path57148"
       sodipodi:nodetypes="zzzzzz" /><path
       style="fill:#917cff;fill-opacity:1;stroke:none;stroke-width:6;stroke-linecap:round;stroke-linejoin:round;stroke-dashoffset:30.918"
       d="m 1044.6666,356.0996 -26.508,-20.70146 -25.63553,-9.53212 2.52457,-7.06879 27.65516,11.55176 26.0031,21.20639 z"
       id="path58602"
       sodipodi:nodetypes="ccccccc" /><path
       style="fill:#7563d5;fill-opacity:1;stroke:none;stroke-width:6;stroke-linecap:round;stroke-linejoin:round;stroke-dashoffset:30.918"
       d="m 985.58633,278.83697 21.28867,-22.86772 29.2435,44.10563 1.4281,-2.4992 -29.9576,-45.53374 -23.43078,23.93881 -12.60798,-18.30557 -8.6225,32.75994 1.07109,1.78514 7.19438,-29.18966 12.60799,16.52043 z"
       id="path67246"
       sodipodi:nodetypes="cccccccccccc" /><path
       style="fill:#7563d5;fill-opacity:1;stroke:none;stroke-width:6;stroke-linecap:round;stroke-linejoin:round;stroke-dashoffset:30.918"
       d="m 894.20226,165.74711 29.28499,64.12405 2.01966,-28.27517 11.1081,-103.002405 -17.67198,-3.02949 -7.06879,64.628965 z"
       id="path73868"
       sodipodi:nodetypes="ccccccc" /><path
       style="fill:#7563d5;fill-opacity:1;stroke:none;stroke-width:6;stroke-linecap:round;stroke-linejoin:round;stroke-dashoffset:30.918"
       d="m 1040.0458,373.08709 c 0,0 0.8591,-14.76887 3.2132,-19.27951 2.3542,-4.51064 5.4153,-6.43847 7.8547,-7.6761 2.4393,-1.23763 2.8704,-1.41281 5.3554,-0.89257 2.4849,0.52024 7.8546,5.89096 7.8546,5.89096 0,0 -2.2517,-6.67774 -4.4629,-8.56867 -2.2111,-1.89093 -4.7172,-2.59236 -7.8546,-2.14217 -3.1374,0.45019 -5.8246,3.16594 -8.2116,5.89097 -2.387,2.72503 -4.5756,5.91925 -5.534,9.28272 -0.9583,3.36347 -0.5394,7.23827 -0.1785,10.1753 0.361,2.93703 1.9637,7.31907 1.9637,7.31907 z"
       id="path75322"
       sodipodi:nodetypes="czzzczzzzzc" /><path
       style="fill:#808080;fill-opacity:1;stroke:none;stroke-width:6;stroke-linecap:round;stroke-linejoin:round;stroke-dashoffset:30.918"
       d="m 830.09052,58.261743 -1.18743,-12.544925 152.48395,-2.524564 7.15543,41.724078 -147.28992,1.273961 z"
       id="path86670"
       sodipodi:nodetypes="cccccc" /><path
       style="fill:#b3b3b3;fill-opacity:1;stroke:none;stroke-width:6;stroke-linecap:round;stroke-linejoin:round;stroke-dashoffset:30.918"
       d="m 847.58489,86.109922 -15.82558,-33.609573 147.12853,-2.881592 7.86949,40.652994 z"
       id="path87398"
       sodipodi:nodetypes="ccccc" /><path
       style="fill:#808080;fill-opacity:1;stroke:none;stroke-width:3.3541;stroke-linecap:round;stroke-linejoin:round;stroke-dashoffset:30.918"
       d="m 832.61254,61.066994 149.95173,-0.557858 0.35703,0.892572 -149.23767,0.446285 z"
       id="path87469" /><path
       style="fill:#808080;fill-opacity:1;stroke:none;stroke-width:3.3541;stroke-linecap:round;stroke-linejoin:round;stroke-dashoffset:30.918"
       d="m 835.64728,69.992692 149.95173,-0.557858 0.35703,0.892572 -149.23767,0.446285 z"
       id="path87540" /><path
       style="fill:#808080;fill-opacity:1;stroke:none;stroke-width:3.3541;stroke-linecap:round;stroke-linejoin:round;stroke-dashoffset:30.918"
       d="m 836.89688,78.025821 149.95173,-0.557858 0.35703,0.892572 -149.23767,0.446285 z"
       id="path87542" /><path
       style="fill:#808080;fill-opacity:1;stroke:none;stroke-width:3.3541;stroke-linecap:round;stroke-linejoin:round;stroke-dashoffset:30.918"
       d="m 837.52167,83.738268 149.95174,-0.557858 0.35703,0.892572 -149.23768,0.446285 z"
       id="path87544" /><path
       style="fill:#808080;fill-opacity:1;stroke:none;stroke-width:5.95085;stroke-linecap:round;stroke-linejoin:round;stroke-dashoffset:30.918"
       d="m 959.24192,50.328376 14.029,40.517475 -0.39951,-0.01531 -14.36659,-40.502161 z"
       id="path87546"
       sodipodi:nodetypes="ccccc" /><path
       style="fill:#808080;fill-opacity:1;stroke:none;stroke-width:5.95085;stroke-linecap:round;stroke-linejoin:round;stroke-dashoffset:30.918"
       d="m 945.86171,50.580832 14.029,40.517475 -0.39951,-0.01531 -14.36659,-40.502161 z"
       id="path87548"
       sodipodi:nodetypes="ccccc" /><path
       style="fill:#808080;fill-opacity:1;stroke:none;stroke-width:5.95085;stroke-linecap:round;stroke-linejoin:round;stroke-dashoffset:30.918"
       d="m 917.83899,50.580833 14.029,40.517475 -0.39951,-0.01531 -14.36659,-40.502161 z"
       id="path87550"
       sodipodi:nodetypes="ccccc" /><path
       style="fill:#808080;fill-opacity:1;stroke:none;stroke-width:5.95085;stroke-linecap:round;stroke-linejoin:round;stroke-dashoffset:30.918"
       d="m 890.82611,50.833289 14.029,40.517475 -0.39951,-0.01531 -14.36659,-40.502161 z"
       id="path87552"
       sodipodi:nodetypes="ccccc" /><path
       style="fill:#808080;fill-opacity:1;stroke:none;stroke-width:5.95085;stroke-linecap:round;stroke-linejoin:round;stroke-dashoffset:30.918"
       d="m 875.93115,50.075919 14.029,40.517475 -0.39951,-0.01531 -14.36659,-40.502161 z"
       id="path87554"
       sodipodi:nodetypes="ccccc" /><path
       style="fill:#808080;fill-opacity:1;stroke:none;stroke-width:5.95085;stroke-linecap:round;stroke-linejoin:round;stroke-dashoffset:30.918"
       d="m 853.46249,50.075919 14.029,40.517475 -0.39951,-0.01531 -14.36659,-40.502161 z"
       id="path87556"
       sodipodi:nodetypes="ccccc" /><path
       style="fill:#808080;fill-opacity:1;stroke:none;stroke-width:5.95085;stroke-linecap:round;stroke-linejoin:round;stroke-dashoffset:30.918"
       d="m 864.82305,50.328376 14.029,40.517475 -0.39951,-0.01531 -14.36659,-40.502161 z"
       id="path87558"
       sodipodi:nodetypes="ccccc" /><path
       style="fill:#808080;fill-opacity:1;stroke:none;stroke-width:5.95085;stroke-linecap:round;stroke-linejoin:round;stroke-dashoffset:30.918"
       d="m 842.8593,51.59066 14.029,40.517475 -0.39951,-0.01531 -14.36659,-40.502161 z"
       id="path87560"
       sodipodi:nodetypes="ccccc" /><path
       style="fill:#808080;fill-opacity:1;stroke:none;stroke-width:5.95085;stroke-linecap:round;stroke-linejoin:round;stroke-dashoffset:30.918"
       d="m 903.95387,49.823461 14.029,40.517475 -0.39951,-0.01531 -14.36659,-40.502161 z"
       id="path87562"
       sodipodi:nodetypes="ccccc" /><path
       style="fill:#808080;fill-opacity:1;stroke:none;stroke-width:5.95085;stroke-linecap:round;stroke-linejoin:round;stroke-dashoffset:30.918"
       d="m 930.96675,50.580833 14.029,40.517475 -0.39951,-0.01531 -14.36659,-40.502161 z"
       id="path87564"
       sodipodi:nodetypes="ccccc" /><path
       style="fill:#eb9c68;fill-opacity:1;stroke:none;stroke-width:6;stroke-linecap:round;stroke-linejoin:round;stroke-dashoffset:30.918"
       d="m 537.22823,30.430227 2.01966,-32.3144779 712.93821,-22.2162081 1.0099,23.22603064 z"
       id="path98988" /><path
       style="fill:#b3b3b3;fill-opacity:1;stroke:none;stroke-width:4.38432;stroke-linecap:round;stroke-linejoin:round;stroke-dashoffset:30.918"
       d="m 811.09764,63.091223 -1.6176,-32.819393 11.8624,-1.009823 -1.348,35.848876 z"
       id="path104288"
       inkscape:export-filename="..\..\Users\user\Pictures\admin-customer-care.svg"
       inkscape:export-xdpi="96"
       inkscape:export-ydpi="96" /><path
       style="fill:#b3b3b3;fill-opacity:1;stroke:none;stroke-width:6;stroke-linecap:round;stroke-linejoin:round;stroke-dashoffset:30.918"
       d="m 693.7515,253.6021 c 18.5212,8.16526 245.02424,6.82555 254.72156,-4.87587 C 958.17038,237.02481 960.94178,86.503013 945.21341,67.714651 929.48504,48.92629 704.72182,64.506394 691.31356,82.565017 677.9053,100.62364 675.2303,245.43684 693.7515,253.6021 Z"
       id="path81387"
       sodipodi:nodetypes="zzzzz" /><path
       style="fill:#808080;fill-opacity:1;stroke:none;stroke-width:6;stroke-linecap:round;stroke-linejoin:round;stroke-dashoffset:30.918"
       d="m 693.7515,253.6021 c 2.01087,0.88651 12.02743,2.67081 18.39793,3.33215 -24.26704,-3.98712 -19.20366,-134.04108 -9.83542,-161.167155 4.90326,-14.197567 15.94373,-13.629716 37.79518,-23.028918 16.65181,-7.162628 6.3211,-4.054683 22.32836,-6.558361 -37.22098,4.320822 -66.53752,10.208009 -71.12399,16.385201 C 677.9053,100.62364 675.2303,245.43684 693.7515,253.6021 Z"
       id="path86599"
       sodipodi:nodetypes="scsscss" /><path
       style="fill:#808080;fill-opacity:1;stroke:none;stroke-width:4.90803;stroke-linecap:round;stroke-linejoin:round;stroke-dashoffset:30.918"
       d="m 808.16191,192.83611 c 0,0 8.3664,1.66612 10.6016,4.23907 2.23518,2.57295 1.80004,8.90188 1.80004,8.90188 0,0 -7.34255,-0.28881 -9.84106,-2.75228 -2.4985,-2.46348 -2.56058,-10.38867 -2.56058,-10.38867 z"
       id="path86593"
       sodipodi:nodetypes="czczc" /><path
       style="fill:#808080;fill-opacity:1;stroke:none;stroke-width:4.90803;stroke-linecap:round;stroke-linejoin:round;stroke-dashoffset:30.918"
       d="m 809.01009,190.6812 c 11.11826,0.14201 18.08874,-7.10525 17.74831,-16.33142 -4.53849,-5.68221 -6.08405,-13.49497 -2.43867,-19.78128 4.09293,-5.34993 5.66137,-7.8207 14.15591,-5.76834 0,0 0.73953,-11.25217 -1.79587,-14.94198 -2.53541,-3.68982 -5.87998,-6.23442 -9.32932,-7.47145 -3.44935,-1.23703 -6.50286,0.22467 -9.80828,-0.22098 -3.30543,-0.44564 -5.15483,-2.98313 -9.87115,-2.47469 -12.39459,2.89441 -19.95428,9.67488 -21.60058,20.68833 0.11839,5.73102 4.49813,10.78999 6.825,17.66929 1.93472,5.71989 1.82682,13.55541 2.40797,16.19264 1.94446,6.39566 6.78873,11.01168 13.70668,12.43988 z"
       id="path86595"
       sodipodi:nodetypes="cccczzzccscc" /><rect
       style="fill:#beb2ff;fill-opacity:1;stroke:none;stroke-width:6;stroke-linecap:round;stroke-linejoin:round;stroke-dashoffset:30.918"
       id="rect108905"
       width="239.92278"
       height="147.09552"
       x="1111.0709"
       y="-544.27148"
       transform="scale(1,-1)"
       ry="44.271465" /><rect
       style="fill:#e0f3fd;fill-opacity:1;stroke:none;stroke-width:6;stroke-linecap:round;stroke-linejoin:round;stroke-dashoffset:30.918"
       id="rect118468"
       width="183.03098"
       height="15.781"
       x="1142.4894"
       y="-521.42169"
       transform="scale(1,-1)"
       ry="7.8905001" /><rect
       style="fill:#e0f3fd;fill-opacity:1;stroke:none;stroke-width:6;stroke-linecap:round;stroke-linejoin:round;stroke-dashoffset:30.918"
       id="rect118524"
       width="39.383274"
       height="11.108103"
       x="1208.9597"
       y="-491.56436"
       transform="scale(1,-1)"
       ry="5.5540514" /><rect
       style="fill:#e0f3fd;fill-opacity:1;stroke:none;stroke-width:6;stroke-linecap:round;stroke-linejoin:round;stroke-dashoffset:30.918"
       id="rect118526"
       width="39.383274"
       height="11.108103"
       x="1208.9597"
       y="-491.56436"
       transform="scale(1,-1)"
       ry="5.5540514" /><rect
       style="fill:#e0f3fd;fill-opacity:1;stroke:none;stroke-width:6;stroke-linecap:round;stroke-linejoin:round;stroke-dashoffset:30.918"
       id="rect118532"
       width="164.34303"
       height="9.679987"
       x="1148.9597"
       y="-475.6333"
       transform="scale(1,-1)"
       ry="4.6614766" /><g
       id="g118576"
       transform="translate(0,-2.0936031)"><rect
         style="fill:#e0f3fd;fill-opacity:1;stroke:none;stroke-width:6;stroke-linecap:round;stroke-linejoin:round;stroke-dashoffset:30.918"
         id="rect118536"
         width="89.36721"
         height="11.108093"
         x="1178.9597"
         y="-447.29291"
         transform="scale(1,-1)"
         ry="4.6614766" /><rect
         style="fill:#e0f3fd;fill-opacity:1;stroke:none;stroke-width:6;stroke-linecap:round;stroke-linejoin:round;stroke-dashoffset:30.918"
         id="rect118546"
         width="39.383274"
         height="11.108103"
         x="1275.0099"
         y="-447.29291"
         transform="scale(1,-1)"
         ry="5.5540514" /><rect
         style="fill:#e0f3fd;fill-opacity:1;stroke:none;stroke-width:6;stroke-linecap:round;stroke-linejoin:round;stroke-dashoffset:30.918"
         id="rect118552"
         width="11.535122"
         height="10.394037"
         x="1159.3329"
         y="-446.93588"
         transform="scale(1,-1)"
         ry="3.409816" /></g><g
       id="g118582"
       transform="translate(-0.50491375,-3.0294825)"><rect
         style="fill:#e0f3fd;fill-opacity:1;stroke:none;stroke-width:6;stroke-linecap:round;stroke-linejoin:round;stroke-dashoffset:30.918"
         id="rect118538"
         width="59.376865"
         height="11.108093"
         x="1208.9597"
         y="-432.29773"
         transform="scale(1,-1)"
         ry="5.5540466" /><rect
         style="fill:#e0f3fd;fill-opacity:1;stroke:none;stroke-width:6;stroke-linecap:round;stroke-linejoin:round;stroke-dashoffset:30.918"
         id="rect118542"
         width="39.383274"
         height="11.108103"
         x="1147.908"
         y="-432.29773"
         transform="scale(1,-1)"
         ry="5.5540514" /><rect
         style="fill:#e0f3fd;fill-opacity:1;stroke:none;stroke-width:6;stroke-linecap:round;stroke-linejoin:round;stroke-dashoffset:30.918"
         id="rect118548"
         width="39.383274"
         height="11.108103"
         x="1274.2958"
         y="-432.29773"
         transform="scale(1,-1)"
         ry="5.5540514" /><rect
         style="fill:#e0f3fd;fill-opacity:1;stroke:none;stroke-width:6;stroke-linecap:round;stroke-linejoin:round;stroke-dashoffset:30.918"
         id="rect118554"
         width="11.535122"
         height="10.394037"
         x="1193.2505"
         y="-432.29773"
         transform="scale(1,-1)"
         ry="3.409816" /></g><g
       id="g118571"
       transform="translate(0,-0.43399937)"><rect
         style="fill:#e0f3fd;fill-opacity:1;stroke:none;stroke-width:6;stroke-linecap:round;stroke-linejoin:round;stroke-dashoffset:30.918"
         id="rect118534"
         width="39.383274"
         height="11.108103"
         x="1148.9597"
         y="-461.56436"
         transform="scale(1,-1)"
         ry="5.5540514" /><rect
         style="fill:#e0f3fd;fill-opacity:1;stroke:none;stroke-width:6;stroke-linecap:round;stroke-linejoin:round;stroke-dashoffset:30.918"
         id="rect118540"
         width="39.383274"
         height="11.108103"
         x="1195.0356"
         y="-461.56436"
         transform="scale(1,-1)"
         ry="5.5540514" /><rect
         style="fill:#e0f3fd;fill-opacity:1;stroke:none;stroke-width:6;stroke-linecap:round;stroke-linejoin:round;stroke-dashoffset:30.918"
         id="rect118544"
         width="39.383274"
         height="11.108103"
         x="1258.9436"
         y="-461.56436"
         transform="scale(1,-1)"
         ry="5.5540514" /><rect
         style="fill:#e0f3fd;fill-opacity:1;stroke:none;stroke-width:6;stroke-linecap:round;stroke-linejoin:round;stroke-dashoffset:30.918"
         id="rect118550"
         width="11.535122"
         height="10.394037"
         x="1301.787"
         y="-461.20734"
         transform="scale(1,-1)"
         ry="3.409816" /><rect
         style="fill:#e0f3fd;fill-opacity:1;stroke:none;stroke-width:6;stroke-linecap:round;stroke-linejoin:round;stroke-dashoffset:30.918"
         id="rect118556"
         width="11.535122"
         height="10.394037"
         x="1242.1633"
         y="-461.20734"
         transform="scale(1,-1)"
         ry="3.409816" /></g><g
       id="g118564"><rect
         style="fill:#e0f3fd;fill-opacity:1;stroke:none;stroke-width:6;stroke-linecap:round;stroke-linejoin:round;stroke-dashoffset:30.918"
         id="rect118522"
         width="39.383274"
         height="11.108103"
         x="1148.9597"
         y="-491.56436"
         transform="scale(1,-1)"
         ry="5.5540514" /><rect
         style="fill:#e0f3fd;fill-opacity:1;stroke:none;stroke-width:6;stroke-linecap:round;stroke-linejoin:round;stroke-dashoffset:30.918"
         id="rect118528"
         width="39.383274"
         height="11.108103"
         x="1208.9597"
         y="-491.56436"
         transform="scale(1,-1)"
         ry="5.5540514" /><rect
         style="fill:#e0f3fd;fill-opacity:1;stroke:none;stroke-width:6;stroke-linecap:round;stroke-linejoin:round;stroke-dashoffset:30.918"
         id="rect118530"
         width="39.383274"
         height="11.108103"
         x="1253.9597"
         y="-491.56436"
         transform="scale(1,-1)"
         ry="5.5540514" /><rect
         style="fill:#e0f3fd;fill-opacity:1;stroke:none;stroke-width:6;stroke-linecap:round;stroke-linejoin:round;stroke-dashoffset:30.918"
         id="rect118558"
         width="11.535122"
         height="10.394037"
         x="1301.4299"
         y="-491.20734"
         transform="scale(1,-1)"
         ry="3.409816" /></g><circle
       style="fill:#beb2ff;fill-opacity:1;stroke:none;stroke-width:6;stroke-linecap:round;stroke-linejoin:round;stroke-dashoffset:30.918"
       id="path119589"
       cx="811.88153"
       cy="-462.15506"
       r="87.828873"
       transform="scale(1,-1)" /><path
       style="fill:#beb2ff;fill-opacity:1;stroke:#e0f3fd;stroke-width:6;stroke-linecap:round;stroke-linejoin:round;stroke-dashoffset:30.918;stroke-opacity:1"
       id="circle120386"
       transform="scale(1,-1)"
       sodipodi:type="arc"
       sodipodi:cx="811.88153"
       sodipodi:cy="-462.15506"
       sodipodi:rx="67.835312"
       sodipodi:ry="67.835312"
       sodipodi:start="1.118448"
       sodipodi:end="0.47428819"
       sodipodi:open="true"
       sodipodi:arc-type="arc"
       d="m 841.53091,-401.14241 a 67.835312,67.835312 0 0 1 -85.11847,-21.96384 67.835312,67.835312 0 0 1 8.03135,-87.53891 67.835312,67.835312 0 0 1 87.69404,-6.10898 67.835312,67.835312 0 0 1 20.09122,85.57983" /><text
       xml:space="preserve"
       style="font-weight:bold;font-size:45px;font-family:Futura;-inkscape-font-specification:'Futura Bold';fill:#e0f3fd;fill-opacity:1;stroke:none;stroke-width:6;stroke-linecap:round;stroke-linejoin:round;stroke-dashoffset:30.918"
       x="758.32727"
       y="-441.94583"
       id="text118638"
       transform="scale(1,-1)"><tspan
         sodipodi:role="line"
         id="tspan118636"
         style="font-size:45px;fill:#e0f3fd;fill-opacity:1;stroke-width:6"
         x="758.32727"
         y="-441.94583">24/7</tspan></text><rect
       style="fill:#beb2ff;fill-opacity:1;stroke:none;stroke-width:4.82715;stroke-linecap:round;stroke-linejoin:round;stroke-dashoffset:30.918;stroke-opacity:1"
       id="rect122724"
       width="118.18681"
       height="74.33358"
       x="1212.8135"
       y="-290.13934"
       transform="scale(1,-1)"
       ry="11.631271" /><path
       style="fill:none;fill-opacity:1;stroke:#e0f3fd;stroke-width:4.82715;stroke-linecap:round;stroke-linejoin:round;stroke-dashoffset:30.918;stroke-opacity:1"
       d="m 1216.8426,284.55715 53.447,-38.43358 57.096,37.2399"
       id="path122914"
       sodipodi:nodetypes="ccc" /><path
       style="fill:#ffb0f8;fill-opacity:1;stroke:none;stroke-width:4.90803;stroke-linecap:round;stroke-linejoin:round;stroke-dashoffset:30.918"
       d="m 622.7797,50.222629 c 0,0 7.91128,-3.191295 11.19097,-2.264043 3.27968,0.927263 6.38407,6.459661 6.38407,6.459661 0,0 -6.30006,3.782279 -9.74001,3.090902 -3.43994,-0.691391 -7.83503,-7.28652 -7.83503,-7.28652 z"
       id="path125288"
       sodipodi:nodetypes="czczc" /></g></svg>
