<?xml version="1.0" encoding="UTF-8" standalone="no"?>
<!-- Created with Inkscape (http://www.inkscape.org/) -->

<svg
   version="1.1"
   id="svg2"
   width="666.66669"
   height="666.66669"
   viewBox="0 0 666.66669 666.66669"
   sodipodi:docname="customer care n care.svg"
   xml:space="preserve"
   inkscape:version="1.2.2 (732a01da63, 2022-12-09)"
   xmlns:inkscape="http://www.inkscape.org/namespaces/inkscape"
   xmlns:sodipodi="http://sodipodi.sourceforge.net/DTD/sodipodi-0.dtd"
   xmlns="http://www.w3.org/2000/svg"
   xmlns:svg="http://www.w3.org/2000/svg"><defs
     id="defs6" /><sodipodi:namedview
     id="namedview4"
     pagecolor="#505050"
     bordercolor="#eeeeee"
     borderopacity="1"
     inkscape:showpageshadow="0"
     inkscape:pageopacity="0"
     inkscape:pagecheckerboard="0"
     inkscape:deskcolor="#505050"
     showgrid="false"
     inkscape:zoom="0.37135056"
     inkscape:cx="779.58682"
     inkscape:cy="57.896776"
     inkscape:window-width="1920"
     inkscape:window-height="991"
     inkscape:window-x="-9"
     inkscape:window-y="-9"
     inkscape:window-maximized="1"
     inkscape:current-layer="g10" /><g
     id="g10"
     inkscape:groupmode="layer"
     inkscape:label="Page 1"
     transform="matrix(1.3333333,0,0,-1.3333333,0,666.66667)"><path
       style="fill:#ffb380;fill-opacity:1;stroke:none;stroke-width:3.34036;stroke-linecap:round;stroke-linejoin:round;stroke-dashoffset:30.918"
       d="m 17.281631,124.85565 68.588102,50.59778 308.084217,-6.74637 21.36352,-60.71733 z"
       id="path98932" /><path
       style="fill:#808080;fill-opacity:1;stroke:none;stroke-width:3.34036;stroke-linecap:round;stroke-linejoin:round;stroke-dashoffset:30.918"
       d="m 163.64933,143.60109 -1.68659,-18.27142 12.36834,-0.5622 -1.40549,19.95802 z"
       id="path86597"
       inkscape:export-filename="..\..\Users\user\Pictures\admin-customer-care.svg"
       inkscape:export-xdpi="96"
       inkscape:export-ydpi="96" /><path
       style="fill:#e07c66;fill-opacity:1;stroke:none;stroke-width:3.34036;stroke-linecap:round;stroke-linejoin:round;stroke-dashoffset:30.918"
       d="m 322.92252,195.83062 11.92597,-27.03229 22.26193,7.1556 -12.72108,28.62243 z"
       id="path23796" /><path
       style="fill:#ff947c;fill-opacity:1;stroke:none;stroke-width:3.34036;stroke-linecap:round;stroke-linejoin:round;stroke-dashoffset:30.918"
       d="m 245.0059,322.24632 c -1.25161,-9.55482 2.57049,-26.23228 6.36054,-33.39283 3.79005,-7.16054 10.33587,-10.33587 10.33587,-10.33587 l -1.59013,-15.10628 23.05698,6.36054 -1.59018,16.69641 c 0,0 11.30983,5.80474 14.31125,11.92601 3.00143,6.12128 3.06217,14.38509 0.79507,22.26188 -2.26716,7.87681 -7.34239,17.99577 -15.10632,22.2619 -7.76389,4.26611 -19.10434,5.12802 -26.23721,0.79506 -7.13286,-4.33296 -9.08426,-11.912 -10.33587,-21.46682 z"
       id="path22342"
       sodipodi:nodetypes="zzcccczzzzz" /><path
       style="fill:#e07c66;fill-opacity:1;stroke:none;stroke-width:3.34036;stroke-linecap:round;stroke-linejoin:round;stroke-dashoffset:30.918"
       d="m 203.73663,208.19897 -8.31311,-37.99515 23.66738,-5.21274 4.42595,40.14747 z"
       id="path57146"
       sodipodi:nodetypes="ccccc" /><path
       style="fill:#e07c66;fill-opacity:1;stroke:none;stroke-width:3.34036;stroke-linecap:round;stroke-linejoin:round;stroke-dashoffset:30.918"
       d="m 261.70231,278.31886 c 0,0 2.04096,-0.20013 3.77657,0.19876 1.73562,0.39889 4.79751,1.92752 6.36054,2.68336 1.56303,0.75582 3.08089,1.68952 3.08089,1.68952 l -3.67719,-14.50999 -4.86979,-3.5778 -5.46609,5.3667 z"
       id="path77565"
       sodipodi:nodetypes="czzccccc" /><path
       style="fill:#917cff;fill-opacity:1;stroke:none;stroke-width:3.34036;stroke-linecap:round;stroke-linejoin:round;stroke-dashoffset:30.918"
       d="m 266.47272,265.79654 19.63556,15.42734 8.19178,-5.88653 c 0,0 28.93546,-8.24012 39.75337,-21.46682 10.81792,-13.22669 16.69644,-54.85965 16.69644,-54.85965 l -37.36818,-15.90134 -3.4448,9.35475 -5.30093,-27.6413 -76.32647,-2.3852 -3.04386,35.0546 -28.75884,7.87903 26.73464,51.72761 19.32195,9.29699 10.64299,3.97265 2.93047,5.76375 z"
       id="path17984"
       sodipodi:nodetypes="ccczcccccccccccc" /><path
       style="fill:#7563d5;fill-opacity:1;stroke:none;stroke-width:3.34036;stroke-linecap:round;stroke-linejoin:round;stroke-dashoffset:30.918"
       d="m 318.33839,185.57299 -16.86591,42.16481 -17.70924,-59.87403 23.05013,-0.8433 2.81097,25.57998 3.3732,-10.11954 z"
       id="path72414"
       sodipodi:nodetypes="ccccccc" /><path
       style="fill:#ff947c;fill-opacity:1;stroke:none;stroke-width:3.34036;stroke-linecap:round;stroke-linejoin:round;stroke-dashoffset:30.918"
       d="m 301.12636,174.30729 c 3.75105,4.33856 30.80906,14.01003 40.87774,11.18745 10.06872,-2.82258 18.86917,-6.60179 17.4915,-14.31121 -1.37768,-7.70942 -12.60545,-6.41774 -23.05693,-7.95067 -10.45153,-1.53294 -27.24234,-3.07861 -35.02293,0.18464 -7.78063,3.26324 -4.04044,6.55124 -0.28938,10.88979 z"
       id="path25976"
       sodipodi:nodetypes="zzzzzz" /><path
       style="fill:#ff947c;fill-opacity:1;stroke:none;stroke-width:3.34036;stroke-linecap:round;stroke-linejoin:round;stroke-dashoffset:30.918"
       d="m 302.4919,174.6449 c 0,0 -14.50289,2.56686 -20.11781,1.30903 -5.61497,-1.25782 -15.63975,-4.46921 -15.90137,-9.5408 -0.26163,-5.07159 5.55551,-5.69576 9.54083,-7.15561 3.98527,-1.45984 7.90741,-2.09557 13.51614,-0.79506 5.60869,1.3005 15.75664,8.36817 15.75664,8.36817 z"
       id="path27430"
       sodipodi:nodetypes="czzzzcc" /><path
       style="fill:#38383c;fill-opacity:1;stroke:none;stroke-width:3.34036;stroke-linecap:round;stroke-linejoin:round;stroke-dashoffset:30.918"
       d="m 239.06855,327.52785 c 0.896,-2.83455 3.58967,-8.72824 8.43296,-9.55735 4.8433,-0.82911 10.04376,7.02214 14.61713,8.15186 4.57339,1.12972 7.58967,-0.18735 11.52506,-0.2811 3.93537,-0.0937 9.2217,0.84062 12.08723,-0.2811 2.86552,-1.12171 3.87932,-2.22346 4.77871,-4.21648 0.8994,-1.99301 -0.25954,-3.68432 0,-6.74637 0.2595,-3.06204 0.47261,-8.94676 1.9677,-11.52504 1.49503,-2.57829 3.30022,-3.3345 4.77866,-3.93539 1.47844,-0.60089 0.42851,-2.22278 3.37321,-0.2811 2.94463,1.94169 5.12878,9.43534 5.62192,16.86593 0.49321,7.43058 -1.69016,21.21946 -5.05975,26.42328 -3.36964,5.20382 -4.68796,4.08898 -8.43295,5.90308 -3.74504,1.81409 -9.42354,3.4379 -14.05494,4.21648 -4.63141,0.77856 -9.1557,1.20436 -13.49275,0.56219 -4.33706,-0.64217 -8.09126,-2.11748 -12.08725,-4.21648 -3.99599,-2.09901 -9.45427,-5.38254 -11.52505,-8.43296 -2.07079,-3.05043 -4.16122,-5.07254 -4.55166,-7.19213 -0.39045,-2.11959 1.12576,-2.62275 2.02177,-5.45732 z"
       id="path44287"
       sodipodi:nodetypes="zzzzzzzzzzzzzzzzzzz" /><path
       style="fill:#917cff;fill-opacity:1;stroke:none;stroke-width:3.34036;stroke-linecap:round;stroke-linejoin:round;stroke-dashoffset:30.918"
       d="m 297.53709,319.09489 c -2.07475,-2.17852 -2.97498,-6.09013 -2.81097,-9.27626 0.16396,-3.18613 1.58639,-6.81939 3.65429,-8.71406 2.06785,-1.89467 3.86591,-3.63368 7.02745,-2.24879 3.16154,1.3849 5.70428,7.81287 5.62199,12.08725 -0.0823,4.27438 -2.41764,9.69427 -5.62199,10.96286 -3.20435,1.26857 -5.79602,-0.63247 -7.87077,-2.811 z"
       id="path41381"
       sodipodi:nodetypes="zzzzzzz" /><path
       style="fill:#917cff;fill-opacity:1;stroke:none;stroke-width:3.34036;stroke-linecap:round;stroke-linejoin:round;stroke-dashoffset:30.918"
       d="m 298.38036,320.50039 c 0,0 -2.06974,11.98631 -5.34084,17.14702 -3.2711,5.16071 -7.76255,10.45501 -13.77386,12.64945 -6.0113,2.19443 -14.99323,-0.0531 -19.67691,-0.8433 -4.68367,-0.79022 -8.43295,-2.5299 -8.43295,-2.5299 l -1.6866,1.6866 c 0,0 5.28319,3.05002 9.83846,4.21648 4.55527,1.16647 12.0162,2.3469 17.42813,1.68659 5.41188,-0.6603 10.68091,-2.07465 14.33604,-5.05977 3.65512,-2.98512 5.00881,-7.32155 6.74635,-11.24395 1.7376,-3.9224 2.8535,-8.74471 3.6543,-12.08725 0.80079,-3.34255 1.40551,-7.87076 1.40551,-7.87076 l -3.37321,-0.2811 z"
       id="path54966"
       sodipodi:nodetypes="czzzcczzzzzccc" /><path
       style="fill:#ff947c;fill-opacity:1;stroke:none;stroke-width:3.34036;stroke-linecap:round;stroke-linejoin:round;stroke-dashoffset:30.918"
       d="m 189.24905,175.1506 c 3.75106,4.33855 6.91566,8.38804 16.98437,5.56546 10.0687,-2.82258 18.86917,-6.60178 17.49148,-14.31121 -1.37768,-7.70942 -12.60544,-6.41773 -23.05695,-7.95067 -10.45152,-1.53294 -4.75442,-1.11091 -12.53502,2.15233 -7.7806,3.26326 -2.63493,10.20553 1.11612,14.54409 z"
       id="path57148"
       sodipodi:nodetypes="zzzzzz" /><path
       style="fill:#917cff;fill-opacity:1;stroke:none;stroke-width:3.34036;stroke-linecap:round;stroke-linejoin:round;stroke-dashoffset:30.918"
       d="m 298.66151,306.72655 -14.7577,-11.52505 -14.27198,-5.30678 1.4055,-3.93538 15.39635,6.43117 14.47661,11.80615 z"
       id="path58602"
       sodipodi:nodetypes="ccccccc" /><path
       style="fill:#7563d5;fill-opacity:1;stroke:none;stroke-width:3.34036;stroke-linecap:round;stroke-linejoin:round;stroke-dashoffset:30.918"
       d="m 265.76997,263.71242 11.85196,-12.73107 16.28062,24.55476 0.79507,-1.39136 -16.67818,-25.34983 -13.04453,13.32737 -7.0192,-10.1912 -4.80037,18.23832 0.5963,0.99383 4.0053,-16.25065 7.0192,9.19736 z"
       id="path67246"
       sodipodi:nodetypes="cccccccccccc" /><path
       style="fill:#7563d5;fill-opacity:1;stroke:none;stroke-width:3.34036;stroke-linecap:round;stroke-linejoin:round;stroke-dashoffset:30.918"
       d="m 214.89405,200.75232 16.30373,35.69954 1.1244,-15.74153 6.18417,-57.34414 -9.83845,-1.6866 -3.93539,35.98065 z"
       id="path73868"
       sodipodi:nodetypes="ccccccc" /><path
       style="fill:#7563d5;fill-opacity:1;stroke:none;stroke-width:3.34036;stroke-linecap:round;stroke-linejoin:round;stroke-dashoffset:30.918"
       d="m 296.08899,316.18393 c 0,0 0.47828,-8.22222 1.78887,-10.7334 1.31065,-2.5112 3.01484,-3.58447 4.37292,-4.27349 1.35802,-0.68903 1.59802,-0.78655 2.98149,-0.49692 1.38341,0.28963 4.37286,3.27965 4.37286,3.27965 0,0 -1.25358,-3.71767 -2.48461,-4.7704 -1.23098,-1.05273 -2.62619,-1.44324 -4.37287,-1.1926 -1.74667,0.25063 -3.2427,1.76255 -4.57161,3.27966 -1.3289,1.51709 -2.54735,3.29539 -3.08092,5.16793 -0.53351,1.87253 -0.3003,4.02973 -0.0994,5.66485 0.20098,1.63513 1.09325,4.07472 1.09325,4.07472 z"
       id="path75322"
       sodipodi:nodetypes="czzzczzzzzc" /><path
       style="fill:#808080;fill-opacity:1;stroke:none;stroke-width:3.34036;stroke-linecap:round;stroke-linejoin:round;stroke-dashoffset:30.918"
       d="m 179.20137,140.91239 -0.66107,-6.98409 84.89181,-1.40549 3.98362,23.22889 -82.00017,0.70925 z"
       id="path86670"
       sodipodi:nodetypes="cccccc" /><path
       style="fill:#b3b3b3;fill-opacity:1;stroke:none;stroke-width:3.34036;stroke-linecap:round;stroke-linejoin:round;stroke-dashoffset:30.918"
       d="m 188.94095,156.41621 -8.81052,-18.71134 81.91032,-1.60426 4.38114,22.6326 z"
       id="path87398"
       sodipodi:nodetypes="ccccc" /><path
       style="fill:#808080;fill-opacity:1;stroke:none;stroke-width:1.86732;stroke-linecap:round;stroke-linejoin:round;stroke-dashoffset:30.918"
       d="m 180.60545,142.47415 83.48206,-0.31058 0.19877,0.49692 -83.08453,0.24847 z"
       id="path87469" /><path
       style="fill:#808080;fill-opacity:1;stroke:none;stroke-width:1.86732;stroke-linecap:round;stroke-linejoin:round;stroke-dashoffset:30.918"
       d="m 182.29497,147.44332 83.48206,-0.31058 0.19877,0.49693 -83.08454,0.24846 z"
       id="path87540" /><path
       style="fill:#808080;fill-opacity:1;stroke:none;stroke-width:1.86732;stroke-linecap:round;stroke-linejoin:round;stroke-dashoffset:30.918"
       d="m 182.99064,151.91557 83.48208,-0.31057 0.19876,0.49692 -83.08453,0.24846 z"
       id="path87542" /><path
       style="fill:#808080;fill-opacity:1;stroke:none;stroke-width:1.86732;stroke-linecap:round;stroke-linejoin:round;stroke-dashoffset:30.918"
       d="m 183.33848,155.09585 83.48208,-0.31058 0.19877,0.49692 -83.08454,0.24846 z"
       id="path87544" /><path
       style="fill:#808080;fill-opacity:1;stroke:none;stroke-width:3.31299;stroke-linecap:round;stroke-linejoin:round;stroke-dashoffset:30.918"
       d="m 251.10334,136.49567 7.81032,22.55715 -0.22242,-0.009 -7.99826,-22.54862 z"
       id="path87546"
       sodipodi:nodetypes="ccccc" /><path
       style="fill:#808080;fill-opacity:1;stroke:none;stroke-width:3.31299;stroke-linecap:round;stroke-linejoin:round;stroke-dashoffset:30.918"
       d="m 243.65423,136.63623 7.81031,22.55714 -0.22241,-0.008 -7.99826,-22.54862 z"
       id="path87548"
       sodipodi:nodetypes="ccccc" /><path
       style="fill:#808080;fill-opacity:1;stroke:none;stroke-width:3.31299;stroke-linecap:round;stroke-linejoin:round;stroke-dashoffset:30.918"
       d="m 228.05325,136.63623 7.81031,22.55714 -0.22242,-0.008 -7.99826,-22.54863 z"
       id="path87550"
       sodipodi:nodetypes="ccccc" /><path
       style="fill:#808080;fill-opacity:1;stroke:none;stroke-width:3.31299;stroke-linecap:round;stroke-linejoin:round;stroke-dashoffset:30.918"
       d="m 213.01447,136.77677 7.81031,22.55715 -0.22242,-0.008 -7.99825,-22.54862 z"
       id="path87552"
       sodipodi:nodetypes="ccccc" /><path
       style="fill:#808080;fill-opacity:1;stroke:none;stroke-width:3.31299;stroke-linecap:round;stroke-linejoin:round;stroke-dashoffset:30.918"
       d="m 204.72205,136.35512 7.81031,22.55715 -0.22241,-0.008 -7.99826,-22.54863 z"
       id="path87554"
       sodipodi:nodetypes="ccccc" /><path
       style="fill:#808080;fill-opacity:1;stroke:none;stroke-width:3.31299;stroke-linecap:round;stroke-linejoin:round;stroke-dashoffset:30.918"
       d="m 192.21316,136.35512 7.81031,22.55715 -0.22241,-0.008 -7.99827,-22.54863 z"
       id="path87556"
       sodipodi:nodetypes="ccccc" /><path
       style="fill:#808080;fill-opacity:1;stroke:none;stroke-width:3.31299;stroke-linecap:round;stroke-linejoin:round;stroke-dashoffset:30.918"
       d="m 198.53788,136.49567 7.81032,22.55715 -0.22243,-0.009 -7.99825,-22.54862 z"
       id="path87558"
       sodipodi:nodetypes="ccccc" /><path
       style="fill:#808080;fill-opacity:1;stroke:none;stroke-width:3.31299;stroke-linecap:round;stroke-linejoin:round;stroke-dashoffset:30.918"
       d="m 186.31008,137.19842 7.81031,22.55715 -0.22241,-0.008 -7.99826,-22.54862 z"
       id="path87560"
       sodipodi:nodetypes="ccccc" /><path
       style="fill:#808080;fill-opacity:1;stroke:none;stroke-width:3.31299;stroke-linecap:round;stroke-linejoin:round;stroke-dashoffset:30.918"
       d="m 220.32303,136.21458 7.81032,22.55714 -0.22242,-0.008 -7.99826,-22.54862 z"
       id="path87562"
       sodipodi:nodetypes="ccccc" /><path
       style="fill:#808080;fill-opacity:1;stroke:none;stroke-width:3.31299;stroke-linecap:round;stroke-linejoin:round;stroke-dashoffset:30.918"
       d="m 235.36182,136.63623 7.81031,22.55714 -0.22242,-0.008 -7.99825,-22.54863 z"
       id="path87564"
       sodipodi:nodetypes="ccccc" /><path
       style="fill:#eb9c68;fill-opacity:1;stroke:none;stroke-width:3.34036;stroke-linecap:round;stroke-linejoin:round;stroke-dashoffset:30.918"
       d="m 16.157236,125.41785 1.124395,-17.99032 396.911449,-12.368343 0.56223,12.930543 z"
       id="path98988" /><path
       style="fill:#b3b3b3;fill-opacity:1;stroke:none;stroke-width:2.44087;stroke-linecap:round;stroke-linejoin:round;stroke-dashoffset:30.918"
       d="m 168.62753,143.60109 -0.90056,-18.27142 6.60411,-0.5622 -0.75046,19.95802 z"
       id="path104288"
       inkscape:export-filename="..\..\Users\user\Pictures\admin-customer-care.svg"
       inkscape:export-xdpi="96"
       inkscape:export-ydpi="96" /><path
       style="fill:#b3b3b3;fill-opacity:1;stroke:none;stroke-width:3.34036;stroke-linecap:round;stroke-linejoin:round;stroke-dashoffset:30.918"
       d="m 103.29785,249.6635 c 10.31125,4.54581 136.41143,3.79996 141.81019,-2.71452 5.39875,-6.51449 6.94166,-90.31393 -1.81474,-100.77391 -8.75639,-10.45997 -133.88798,-1.78612 -141.35271,8.2676 -7.46473,10.0537 -8.95397,90.67502 1.35726,95.22083 z"
       id="path81387"
       sodipodi:nodetypes="zzzzz" /><path
       style="fill:#808080;fill-opacity:1;stroke:none;stroke-width:3.34036;stroke-linecap:round;stroke-linejoin:round;stroke-dashoffset:30.918"
       d="m 103.29785,249.6635 c 1.11951,0.49354 6.69599,1.48691 10.24262,1.85509 -13.51011,-2.21973 -10.69119,-74.62418 -5.47564,-89.72598 2.72977,-7.90416 8.8763,-7.58802 21.04157,-12.8208 9.2705,-3.98763 3.51912,-2.25735 12.43079,-3.65122 -20.7219,2.40552 -37.04319,5.68307 -39.5966,9.12208 -7.46473,10.0537 -8.95397,90.67502 1.35726,95.22083 z"
       id="path86599"
       sodipodi:nodetypes="scsscss" /><path
       style="fill:#808080;fill-opacity:1;stroke:none;stroke-width:2.73243;stroke-linecap:round;stroke-linejoin:round;stroke-dashoffset:30.918"
       d="m 166.99313,215.83348 c 0,0 4.6578,0.92757 5.9022,2.36 1.24438,1.43242 1.00212,4.95591 1.00212,4.95591 0,0 -4.08779,-0.16079 -5.47878,-1.53227 -1.39097,-1.37148 -1.42554,-5.78364 -1.42554,-5.78364 z"
       id="path86593"
       sodipodi:nodetypes="czczc" /><path
       style="fill:#808080;fill-opacity:1;stroke:none;stroke-width:2.73243;stroke-linecap:round;stroke-linejoin:round;stroke-dashoffset:30.918"
       d="m 167.46534,214.63378 c 6.18982,0.079 10.07047,-3.95568 9.88095,-9.09213 -2.52669,-3.16343 -3.38715,-7.513 -1.35767,-11.01276 2.27864,-2.97844 3.15183,-4.35399 7.88096,-3.21138 0,0 0.41172,-6.26438 -0.9998,-8.31859 -1.41153,-2.05422 -3.27354,-3.47087 -5.19388,-4.15956 -1.92035,-0.68868 -3.62031,0.12508 -5.46053,-0.12303 -1.84022,-0.24809 -2.86982,-1.66078 -5.49552,-1.37772 -6.9004,1.61139 -11.10908,5.38626 -12.02562,11.51774 0.0659,3.19061 2.50423,6.00707 3.79966,9.83695 1.07711,3.18442 1.01704,7.54666 1.34058,9.01488 1.08253,3.56063 3.77946,6.13049 7.63087,6.9256 z"
       id="path86595"
       sodipodi:nodetypes="cccczzzccscc" /><path
       style="fill:#ffb0f8;fill-opacity:1;stroke:none;stroke-width:2.73243;stroke-linecap:round;stroke-linejoin:round;stroke-dashoffset:30.918"
       d="m 63.785984,136.4368 c 0,0 4.404418,-1.77667 6.230306,-1.26045 1.825889,0.51623 3.554182,3.59627 3.554182,3.59627 0,0 -3.50741,2.10568 -5.422521,1.72078 -1.915104,-0.38492 -4.361967,-4.0566 -4.361967,-4.0566 z"
       id="path125288"
       sodipodi:nodetypes="czczc" /></g></svg>
