<?xml version="1.0" encoding="UTF-8" standalone="no"?>
<!-- Created with Inkscape (http://www.inkscape.org/) -->

<svg
   version="1.1"
   id="svg2"
   width="666.66669"
   height="666.66669"
   viewBox="0 0 666.66669 666.66669"
   sodipodi:docname="customer care n care.svg"
   xml:space="preserve"
   inkscape:version="1.2.2 (732a01da63, 2022-12-09)"
   xmlns:inkscape="http://www.inkscape.org/namespaces/inkscape"
   xmlns:sodipodi="http://sodipodi.sourceforge.net/DTD/sodipodi-0.dtd"
   xmlns="http://www.w3.org/2000/svg"
   xmlns:svg="http://www.w3.org/2000/svg"><defs
     id="defs6" /><sodipodi:namedview
     id="namedview4"
     pagecolor="#505050"
     bordercolor="#eeeeee"
     borderopacity="1"
     inkscape:showpageshadow="0"
     inkscape:pageopacity="0"
     inkscape:pagecheckerboard="0"
     inkscape:deskcolor="#505050"
     showgrid="false"
     inkscape:zoom="1.050338"
     inkscape:cx="306.09195"
     inkscape:cy="437.47822"
     inkscape:window-width="1920"
     inkscape:window-height="991"
     inkscape:window-x="-9"
     inkscape:window-y="-9"
     inkscape:window-maximized="1"
     inkscape:current-layer="g10" /><g
     id="g10"
     inkscape:groupmode="layer"
     inkscape:label="Page 1"
     transform="matrix(1.3333333,0,0,-1.3333333,0,666.66667)"><ellipse
       style="fill:#7563d5;fill-opacity:1;stroke:none;stroke-width:8.40835;stroke-linecap:round;stroke-linejoin:round;stroke-dashoffset:30.918;stroke-opacity:1"
       id="ellipse148006"
       transform="scale(1,-1)"
       cx="161.80469"
       cy="-69.628754"
       rx="34.055573"
       ry="11.340441" /><path
       style="fill:#beb2ff;fill-opacity:1;stroke:none;stroke-width:6;stroke-linecap:round;stroke-linejoin:round;stroke-dashoffset:30.918;stroke-opacity:1"
       d="m 166.14795,106.28483 -20.11638,-13.528568 7.22005,-32.117178 c 0,0 8.15022,-6.897002 24.86945,-6.923987 16.71922,-0.02699 27.88406,5.712443 27.88406,5.712443 l 4.56801,33.879402 -17.08937,13.378218 -0.2286,22.20579 -19.64245,3.66606 -8.50235,-4.43472 z"
       id="path138353"
       sodipodi:nodetypes="ccczccccccc" /><ellipse
       style="fill:#7563d5;fill-opacity:1;stroke:none;stroke-width:2.41435;stroke-linecap:round;stroke-linejoin:round;stroke-dashoffset:30.918;stroke-opacity:1"
       id="path138407"
       transform="scale(1,-1)"
       cx="179.22801"
       cy="-127.44138"
       rx="10.580895"
       ry="3.0093639" /><path
       style="fill:#c7e6f6;fill-opacity:1;stroke:none;stroke-width:6;stroke-linecap:round;stroke-linejoin:round;stroke-dashoffset:30.918;stroke-opacity:1"
       d="m 177.79991,140.97369 c 0,0 -9.67232,61.29365 -5.71244,84.97266 3.95988,23.67901 8.70718,45.75972 22.84978,54.26824 14.1426,8.50852 28.09768,0.80119 39.98713,-3.57028 11.88945,-4.37147 29.03083,-4.45045 29.2763,-20.70762 0.24547,-16.25717 -36.65771,-21.22453 -49.26986,-37.13091 -12.61215,-15.90638 -20.65366,-40.39742 -24.2779,-54.9823 -3.62424,-14.58488 -2.14217,-29.99034 -2.14217,-29.99034 z"
       id="path138689"
       sodipodi:nodetypes="czzzzzzcc" /><path
       style="fill:#e0f3fd;fill-opacity:1;stroke:none;stroke-width:6;stroke-linecap:round;stroke-linejoin:round;stroke-dashoffset:30.918;stroke-opacity:1"
       d="m 174.56129,127.20492 c 0,0 7.64713,-6.96362 7.64612,2.91636 -0.001,11.70796 -5.25814,36.3527 -7.26373,45.12709 -3.69805,16.17882 -10.67678,30.75461 -18.56544,42.84335 -7.88866,12.08874 -15.73142,22.8381 -27.13413,29.27629 -11.40271,6.43819 -14.77149,9.46615 -29.990341,6.42651 -19.064008,-5.25239 -42.313518,-34.7944 -35.702796,-47.84174 6.663059,-12.15949 14.982797,-24.25979 28.562233,-22.13574 13.579434,2.12405 19.274724,12.83366 27.848174,14.99518 8.57345,2.16152 5.29277,4.85543 13.56706,1.42811 8.27429,-3.42732 17.51917,-14.459 22.8498,-22.84979 5.33063,-8.39079 5.83933,-16.53849 9.28272,-25.70602 3.44339,-9.16753 8.90033,-24.4796 8.90033,-24.4796 z"
       id="path138687"
       sodipodi:nodetypes="csszzcczzzzzc" /><path
       style="fill:#e0f3fd;fill-opacity:1;stroke:none;stroke-width:6;stroke-linecap:round;stroke-linejoin:round;stroke-dashoffset:30.918;stroke-opacity:1"
       d="m 175.98921,126.80907 c 0,0 26.792,75.86973 52.7702,97.49817 25.9782,21.62844 40.06252,22.9396 60.9379,16.77984 20.87538,-6.15977 28.21385,-21.75342 26.26911,-33.00607 -1.94474,-11.25265 -10.54535,-10.24659 -22.36244,-13.9051 -11.81708,-3.65852 -18.88107,13.26095 -34.27591,9.31009 -15.39484,-3.95085 -21.14224,-11.67003 -33.29198,-21.00108 -12.14973,-9.33104 -20.44716,-23.75811 -29.27891,-33.43657 -4.49484,-4.92576 -6.97871,-17.31099 -11.80548,-22.33634 -4.65718,-4.84879 -8.96249,0.0971 -8.96249,0.0971 z"
       id="path138685"
       sodipodi:nodetypes="czzzzzzsscc" /><path
       style="fill:none;fill-opacity:1;stroke:#e0f3fd;stroke-width:2.6874;stroke-linecap:round;stroke-linejoin:round;stroke-dashoffset:30.918;stroke-opacity:1"
       d="m 147.61359,92.196831 c 0,0 18.75326,-5.762044 31.18343,-6.044789 12.43017,-0.282744 30.35876,5.380239 30.35876,5.380239"
       id="path136379"
       sodipodi:nodetypes="czc" /><path
       style="fill:#7563d5;fill-opacity:1;stroke:none;stroke-width:5.27654;stroke-linecap:round;stroke-linejoin:round;stroke-dashoffset:30.918"
       d="m 192.67088,216.88569 c 0,0 8.99459,1.79121 11.39763,4.55735 2.403,2.76611 1.93517,9.57026 1.93517,9.57026 0,0 -7.89385,-0.3105 -10.57996,-2.95894 -2.68608,-2.64844 -2.75284,-11.16867 -2.75284,-11.16867 z"
       id="path144120"
       sodipodi:nodetypes="czczc"
       inkscape:transform-center-x="-9.1002673"
       inkscape:transform-center-y="-9.1002749" /><path
       style="fill:#7563d5;fill-opacity:1;stroke:none;stroke-width:5.27654;stroke-linecap:round;stroke-linejoin:round;stroke-dashoffset:30.918"
       d="m 192.79272,217.21301 c 0,0 0.0846,9.17081 -2.13209,12.08838 -2.21671,2.91756 -8.97286,3.85002 -8.97286,3.85002 0,0 -1.30916,-7.79071 0.73448,-10.96135 2.04367,-3.17061 10.37047,-4.97705 10.37047,-4.97705 z"
       id="path144122"
       sodipodi:nodetypes="czczc"
       inkscape:transform-center-x="7.3286265"
       inkscape:transform-center-y="-10.743895" /><path
       style="fill:#7563d5;fill-opacity:1;stroke:none;stroke-width:5.27654;stroke-linecap:round;stroke-linejoin:round;stroke-dashoffset:30.918"
       d="m 192.51592,217.40076 c 0,0 -8.80677,2.55971 -12.2148,1.21394 -3.40805,-1.34581 -6.13155,-7.59861 -6.13155,-7.59861 0,0 7.14706,-3.36576 10.752,-2.25498 3.60491,1.11083 7.59435,8.63965 7.59435,8.63965 z"
       id="path144124"
       sodipodi:nodetypes="czczc"
       inkscape:transform-center-x="12.250274"
       inkscape:transform-center-y="4.4710536" /><path
       style="fill:#7563d5;fill-opacity:1;stroke:none;stroke-width:5.27654;stroke-linecap:round;stroke-linejoin:round;stroke-dashoffset:30.918"
       d="m 192.26837,217.21353 c 0,0 -5.64883,-7.2251 -5.66575,-10.88917 -0.0174,-3.66411 4.77622,-8.51601 4.77622,-8.51601 0,0 5.78046,5.3847 6.08871,9.14428 0.3082,3.75955 -5.19918,10.2609 -5.19918,10.2609 z"
       id="path144126"
       sodipodi:nodetypes="czczc"
       inkscape:transform-center-x="0.65220671"
       inkscape:transform-center-y="12.817798" /><path
       style="fill:#7563d5;fill-opacity:1;stroke:none;stroke-width:5.27654;stroke-linecap:round;stroke-linejoin:round;stroke-dashoffset:30.918"
       d="m 192.35452,216.91052 c 0,0 4.76824,-7.83422 8.19085,-9.14245 3.42249,-1.30867 9.65335,1.46546 9.65335,1.46546 0,0 -2.99972,7.30825 -6.40894,8.92277 -3.40921,1.61448 -11.43526,-1.24578 -11.43526,-1.24578 z"
       id="path144128"
       sodipodi:nodetypes="czczc"
       inkscape:transform-center-x="-11.661558"
       inkscape:transform-center-y="5.4540614" /><path
       style="fill:#917cff;fill-opacity:1;stroke:none;stroke-width:5.27654;stroke-linecap:round;stroke-linejoin:round;stroke-dashoffset:30.918"
       d="m 208.32321,185.58104 c 0,0 8.99459,1.79121 11.39763,4.55735 2.403,2.76611 1.93517,9.57026 1.93517,9.57026 0,0 -7.89385,-0.3105 -10.57996,-2.95894 -2.68608,-2.64844 -2.75284,-11.16867 -2.75284,-11.16867 z"
       id="path144130"
       sodipodi:nodetypes="czczc"
       inkscape:transform-center-x="-9.1002673"
       inkscape:transform-center-y="-9.1002749" /><path
       style="fill:#7563d5;fill-opacity:1;stroke:none;stroke-width:5.27654;stroke-linecap:round;stroke-linejoin:round;stroke-dashoffset:30.918"
       d="m 208.44505,185.90836 c 0,0 0.0846,9.17081 -2.13209,12.08838 -2.21671,2.91756 -8.97286,3.85002 -8.97286,3.85002 0,0 -1.30916,-7.79071 0.73448,-10.96135 2.04367,-3.17061 10.37047,-4.97705 10.37047,-4.97705 z"
       id="path144132"
       sodipodi:nodetypes="czczc"
       inkscape:transform-center-x="7.3286265"
       inkscape:transform-center-y="-10.743895" /><path
       style="fill:#7563d5;fill-opacity:1;stroke:none;stroke-width:5.27654;stroke-linecap:round;stroke-linejoin:round;stroke-dashoffset:30.918"
       d="m 208.16825,186.09611 c 0,0 -8.80677,2.55971 -12.2148,1.21394 -3.40805,-1.34581 -6.13155,-7.59861 -6.13155,-7.59861 0,0 7.14706,-3.36576 10.752,-2.25498 3.60491,1.11083 7.59435,8.63965 7.59435,8.63965 z"
       id="path144134"
       sodipodi:nodetypes="czczc"
       inkscape:transform-center-x="12.250274"
       inkscape:transform-center-y="4.4710536" /><path
       style="fill:#917cff;fill-opacity:1;stroke:none;stroke-width:5.27654;stroke-linecap:round;stroke-linejoin:round;stroke-dashoffset:30.918"
       d="m 207.9207,185.90888 c 0,0 -5.64883,-7.2251 -5.66575,-10.88917 -0.0174,-3.66411 4.77622,-8.51601 4.77622,-8.51601 0,0 5.78046,5.3847 6.08871,9.14428 0.3082,3.75955 -5.19918,10.2609 -5.19918,10.2609 z"
       id="path144136"
       sodipodi:nodetypes="czczc"
       inkscape:transform-center-x="0.65220671"
       inkscape:transform-center-y="12.817798" /><path
       style="fill:#917cff;fill-opacity:1;stroke:none;stroke-width:5.27654;stroke-linecap:round;stroke-linejoin:round;stroke-dashoffset:30.918"
       d="m 208.00685,185.60587 c 0,0 4.76824,-7.83422 8.19085,-9.14245 3.42249,-1.30867 9.65335,1.46546 9.65335,1.46546 0,0 -2.99972,7.30825 -6.40894,8.92277 -3.40921,1.61448 -11.43526,-1.24578 -11.43526,-1.24578 z"
       id="path144138"
       sodipodi:nodetypes="czczc"
       inkscape:transform-center-x="-11.661558"
       inkscape:transform-center-y="5.4540614" /><path
       style="fill:#beb2ff;fill-opacity:1;stroke:none;stroke-width:5.27654;stroke-linecap:round;stroke-linejoin:round;stroke-dashoffset:30.918"
       d="m 167.4252,183.05647 c 0,0 8.99459,1.79121 11.39763,4.55735 2.403,2.76611 1.93517,9.57026 1.93517,9.57026 0,0 -7.89385,-0.3105 -10.57996,-2.95894 -2.68608,-2.64844 -2.75284,-11.16867 -2.75284,-11.16867 z"
       id="path144140"
       sodipodi:nodetypes="czczc"
       inkscape:transform-center-x="-9.1002673"
       inkscape:transform-center-y="-9.1002749" /><path
       style="fill:#beb2ff;fill-opacity:1;stroke:none;stroke-width:5.27654;stroke-linecap:round;stroke-linejoin:round;stroke-dashoffset:30.918"
       d="m 167.54704,183.38379 c 0,0 0.0846,9.17081 -2.13209,12.08838 -2.21671,2.91756 -8.97286,3.85002 -8.97286,3.85002 0,0 -1.30916,-7.79071 0.73448,-10.96135 2.04367,-3.17061 10.37047,-4.97705 10.37047,-4.97705 z"
       id="path144142"
       sodipodi:nodetypes="czczc"
       inkscape:transform-center-x="7.3286265"
       inkscape:transform-center-y="-10.743895" /><path
       style="fill:#beb2ff;fill-opacity:1;stroke:none;stroke-width:5.27654;stroke-linecap:round;stroke-linejoin:round;stroke-dashoffset:30.918"
       d="m 167.27024,183.57154 c 0,0 -8.80677,2.55971 -12.2148,1.21394 -3.40805,-1.34581 -6.13155,-7.59861 -6.13155,-7.59861 0,0 7.14706,-3.36576 10.752,-2.25498 3.60491,1.11083 7.59435,8.63965 7.59435,8.63965 z"
       id="path144144"
       sodipodi:nodetypes="czczc"
       inkscape:transform-center-x="12.250274"
       inkscape:transform-center-y="4.4710536" /><path
       style="fill:#beb2ff;fill-opacity:1;stroke:none;stroke-width:5.27654;stroke-linecap:round;stroke-linejoin:round;stroke-dashoffset:30.918"
       d="m 167.02269,183.38431 c 0,0 -5.64883,-7.2251 -5.66575,-10.88917 -0.0174,-3.66411 4.77622,-8.51601 4.77622,-8.51601 0,0 5.78046,5.3847 6.08871,9.14428 0.3082,3.75955 -5.19918,10.2609 -5.19918,10.2609 z"
       id="path144146"
       sodipodi:nodetypes="czczc"
       inkscape:transform-center-x="0.65220671"
       inkscape:transform-center-y="12.817798" /><path
       style="fill:#beb2ff;fill-opacity:1;stroke:none;stroke-width:5.27654;stroke-linecap:round;stroke-linejoin:round;stroke-dashoffset:30.918"
       d="m 167.10884,183.0813 c 0,0 4.76824,-7.83422 8.19085,-9.14245 3.42249,-1.30867 9.65335,1.46546 9.65335,1.46546 0,0 -2.99972,7.30825 -6.40894,8.92277 -3.40921,1.61448 -11.43526,-1.24578 -11.43526,-1.24578 z"
       id="path144148"
       sodipodi:nodetypes="czczc"
       inkscape:transform-center-x="-11.661558"
       inkscape:transform-center-y="5.4540614" /><path
       style="fill:#917cff;fill-opacity:1;stroke:none;stroke-width:5.27654;stroke-linecap:round;stroke-linejoin:round;stroke-dashoffset:30.918"
       d="m 167.4252,183.05647 c 0,0 8.99459,1.79121 11.39763,4.55735 2.403,2.76611 1.93517,9.57026 1.93517,9.57026 0,0 -7.89385,-0.3105 -10.57996,-2.95894 -2.68608,-2.64844 -2.75284,-11.16867 -2.75284,-11.16867 z"
       id="path144150"
       sodipodi:nodetypes="czczc"
       inkscape:transform-center-x="-9.1002673"
       inkscape:transform-center-y="-9.1002749" /><path
       style="fill:#917cff;fill-opacity:1;stroke:none;stroke-width:5.27654;stroke-linecap:round;stroke-linejoin:round;stroke-dashoffset:30.918"
       d="m 167.54704,183.38379 c 0,0 0.0846,9.17081 -2.13209,12.08838 -2.21671,2.91756 -8.97286,3.85002 -8.97286,3.85002 0,0 -1.30916,-7.79071 0.73448,-10.96135 2.04367,-3.17061 10.37047,-4.97705 10.37047,-4.97705 z"
       id="path144152"
       sodipodi:nodetypes="czczc"
       inkscape:transform-center-x="7.3286265"
       inkscape:transform-center-y="-10.743895" /><path
       style="fill:#7563d5;fill-opacity:1;stroke:none;stroke-width:5.27654;stroke-linecap:round;stroke-linejoin:round;stroke-dashoffset:30.918"
       d="m 167.27024,183.57154 c 0,0 -8.80677,2.55971 -12.2148,1.21394 -3.40805,-1.34581 -6.13155,-7.59861 -6.13155,-7.59861 0,0 7.14706,-3.36576 10.752,-2.25498 3.60491,1.11083 7.59435,8.63965 7.59435,8.63965 z"
       id="path144154"
       sodipodi:nodetypes="czczc"
       inkscape:transform-center-x="12.250274"
       inkscape:transform-center-y="4.4710536" /><path
       style="fill:#7563d5;fill-opacity:1;stroke:none;stroke-width:5.27654;stroke-linecap:round;stroke-linejoin:round;stroke-dashoffset:30.918"
       d="m 167.02269,183.38431 c 0,0 -5.64883,-7.2251 -5.66575,-10.88917 -0.0174,-3.66411 4.77622,-8.51601 4.77622,-8.51601 0,0 5.78046,5.3847 6.08871,9.14428 0.3082,3.75955 -5.19918,10.2609 -5.19918,10.2609 z"
       id="path144156"
       sodipodi:nodetypes="czczc"
       inkscape:transform-center-x="0.65220671"
       inkscape:transform-center-y="12.817798" /><path
       style="fill:#917cff;fill-opacity:1;stroke:none;stroke-width:5.27654;stroke-linecap:round;stroke-linejoin:round;stroke-dashoffset:30.918"
       d="m 167.10884,183.0813 c 0,0 4.76824,-7.83422 8.19085,-9.14245 3.42249,-1.30867 9.65335,1.46546 9.65335,1.46546 0,0 -2.99972,7.30825 -6.40894,8.92277 -3.40921,1.61448 -11.43526,-1.24578 -11.43526,-1.24578 z"
       id="path144158"
       sodipodi:nodetypes="czczc"
       inkscape:transform-center-x="-11.661558"
       inkscape:transform-center-y="5.4540614" /><path
       style="fill:#917cff;fill-opacity:1;stroke:none;stroke-width:5.27654;stroke-linecap:round;stroke-linejoin:round;stroke-dashoffset:30.918"
       d="m 138.2052,217.4436 c 0,0 8.04568,4.40205 9.5103,7.76077 1.46458,3.35869 -1.01897,9.71064 -1.01897,9.71064 0,0 -7.43877,-2.6597 -9.20871,-5.99087 -1.76991,-3.33117 0.71738,-11.48054 0.71738,-11.48054 z"
       id="path144260"
       sodipodi:nodetypes="czczc"
       inkscape:transform-center-x="-6.0202053"
       inkscape:transform-center-y="-11.400128" /><path
       style="fill:#917cff;fill-opacity:1;stroke:none;stroke-width:5.27654;stroke-linecap:round;stroke-linejoin:round;stroke-dashoffset:30.918"
       d="m 138.22345,217.79238 c 0,0 -2.66505,8.77545 -5.65358,10.8955 -2.98855,2.12003 -9.71396,0.98691 -9.71396,0.98691 0,0 1.08346,-7.8253 3.98265,-10.23862 2.89921,-2.41328 11.38489,-1.64379 11.38489,-1.64379 z"
       id="path144262"
       sodipodi:nodetypes="czczc"
       inkscape:transform-center-x="9.9467878"
       inkscape:transform-center-y="-8.2630385" /><path
       style="fill:#7563d5;fill-opacity:1;stroke:none;stroke-width:5.27654;stroke-linecap:round;stroke-linejoin:round;stroke-dashoffset:30.918"
       d="m 137.90313,217.88865 c 0,0 -9.16916,-0.19449 -12.01792,-2.4989 -2.84878,-2.30445 -3.57524,-9.08584 -3.57524,-9.08584 0,0 7.82692,-1.07151 10.93392,1.06765 3.10696,2.13919 4.65924,10.51709 4.65924,10.51709 z"
       id="path144264"
       sodipodi:nodetypes="czczc"
       inkscape:transform-center-x="10.524294"
       inkscape:transform-center-y="7.556145" /><path
       style="fill:#7563d5;fill-opacity:1;stroke:none;stroke-width:5.27654;stroke-linecap:round;stroke-linejoin:round;stroke-dashoffset:30.918"
       d="m 137.72299,217.63589 c 0,0 -3.22648,-8.58494 -2.14559,-12.08599 1.08044,-3.50124 7.10683,-6.69534 7.10683,-6.69534 0,0 3.9031,6.86837 3.07158,10.54778 -0.83156,3.67936 -8.03282,8.23355 -8.03282,8.23355 z"
       id="path144266"
       sodipodi:nodetypes="czczc"
       inkscape:transform-center-x="-3.485597"
       inkscape:transform-center-y="12.511978" /><path
       style="fill:#917cff;fill-opacity:1;stroke:none;stroke-width:5.27654;stroke-linecap:round;stroke-linejoin:round;stroke-dashoffset:30.918"
       d="m 137.89591,217.37257 c 0,0 6.8951,-6.04721 10.55239,-6.27069 3.65731,-0.22394 8.77176,4.28847 8.77176,4.28847 0,0 -5.05023,6.07488 -8.78645,6.5946 -3.7362,0.51969 -10.5377,-4.61238 -10.5377,-4.61238 z"
       id="path144268"
       sodipodi:nodetypes="czczc"
       inkscape:transform-center-x="-12.744285"
       inkscape:transform-center-y="1.4284612" /><path
       style="fill:#917cff;fill-opacity:1;stroke:none;stroke-width:5.27654;stroke-linecap:round;stroke-linejoin:round;stroke-dashoffset:30.918"
       d="m 167.4252,242.13138 c 0,0 8.99459,1.79121 11.39763,4.55735 2.403,2.76611 1.93517,9.57026 1.93517,9.57026 0,0 -7.89385,-0.3105 -10.57996,-2.95894 -2.68608,-2.64844 -2.75284,-11.16867 -2.75284,-11.16867 z"
       id="path144270"
       sodipodi:nodetypes="czczc"
       inkscape:transform-center-x="-9.1002673"
       inkscape:transform-center-y="-9.1002749" /><path
       style="fill:#917cff;fill-opacity:1;stroke:none;stroke-width:5.27654;stroke-linecap:round;stroke-linejoin:round;stroke-dashoffset:30.918"
       d="m 167.54704,242.4587 c 0,0 0.0846,9.17081 -2.13209,12.08838 -2.21671,2.91756 -8.97286,3.85002 -8.97286,3.85002 0,0 -1.30916,-7.79071 0.73448,-10.96135 2.04367,-3.17061 10.37047,-4.97705 10.37047,-4.97705 z"
       id="path144272"
       sodipodi:nodetypes="czczc"
       inkscape:transform-center-x="7.3286265"
       inkscape:transform-center-y="-10.743895" /><path
       style="fill:#7563d5;fill-opacity:1;stroke:none;stroke-width:5.27654;stroke-linecap:round;stroke-linejoin:round;stroke-dashoffset:30.918"
       d="m 167.27024,242.64645 c 0,0 -8.80677,2.55971 -12.2148,1.21394 -3.40805,-1.34581 -6.13155,-7.59861 -6.13155,-7.59861 0,0 7.14706,-3.36576 10.752,-2.25498 3.60491,1.11083 7.59435,8.63965 7.59435,8.63965 z"
       id="path144274"
       sodipodi:nodetypes="czczc"
       inkscape:transform-center-x="12.250274"
       inkscape:transform-center-y="4.4710536" /><path
       style="fill:#7563d5;fill-opacity:1;stroke:none;stroke-width:5.27654;stroke-linecap:round;stroke-linejoin:round;stroke-dashoffset:30.918"
       d="m 167.02269,242.45922 c 0,0 -5.64883,-7.2251 -5.66575,-10.88917 -0.0174,-3.66411 4.77622,-8.51601 4.77622,-8.51601 0,0 5.78046,5.3847 6.08871,9.14428 0.3082,3.75955 -5.19918,10.2609 -5.19918,10.2609 z"
       id="path144276"
       sodipodi:nodetypes="czczc"
       inkscape:transform-center-x="0.65220671"
       inkscape:transform-center-y="12.817798" /><path
       style="fill:#917cff;fill-opacity:1;stroke:none;stroke-width:5.27654;stroke-linecap:round;stroke-linejoin:round;stroke-dashoffset:30.918"
       d="m 167.10884,242.15621 c 0,0 4.76824,-7.83422 8.19085,-9.14245 3.42249,-1.30867 9.65335,1.46546 9.65335,1.46546 0,0 -2.99972,7.30825 -6.40894,8.92277 -3.40921,1.61448 -11.43526,-1.24578 -11.43526,-1.24578 z"
       id="path144278"
       sodipodi:nodetypes="czczc"
       inkscape:transform-center-x="-11.661558"
       inkscape:transform-center-y="5.4540614" /><path
       style="fill:#917cff;fill-opacity:1;stroke:none;stroke-width:5.27654;stroke-linecap:round;stroke-linejoin:round;stroke-dashoffset:30.918"
       d="m 224.98537,233.54785 c 0,0 8.99459,1.79121 11.39763,4.55735 2.403,2.76611 1.93517,9.57026 1.93517,9.57026 0,0 -7.89385,-0.3105 -10.57996,-2.95894 -2.68608,-2.64844 -2.75284,-11.16867 -2.75284,-11.16867 z"
       id="path144280"
       sodipodi:nodetypes="czczc"
       inkscape:transform-center-x="-9.1002673"
       inkscape:transform-center-y="-9.1002749" /><path
       style="fill:#7563d5;fill-opacity:1;stroke:none;stroke-width:5.27654;stroke-linecap:round;stroke-linejoin:round;stroke-dashoffset:30.918"
       d="m 225.10721,233.87517 c 0,0 0.0846,9.17081 -2.13209,12.08838 -2.21671,2.91756 -8.97286,3.85002 -8.97286,3.85002 0,0 -1.30916,-7.79071 0.73448,-10.96135 2.04367,-3.17061 10.37047,-4.97705 10.37047,-4.97705 z"
       id="path144282"
       sodipodi:nodetypes="czczc"
       inkscape:transform-center-x="7.3286265"
       inkscape:transform-center-y="-10.743895" /><path
       style="fill:#7563d5;fill-opacity:1;stroke:none;stroke-width:5.27654;stroke-linecap:round;stroke-linejoin:round;stroke-dashoffset:30.918"
       d="m 224.83041,234.06292 c 0,0 -8.80677,2.55971 -12.2148,1.21394 -3.40805,-1.34581 -6.13155,-7.59861 -6.13155,-7.59861 0,0 7.14706,-3.36576 10.752,-2.25498 3.60491,1.11083 7.59435,8.63965 7.59435,8.63965 z"
       id="path144284"
       sodipodi:nodetypes="czczc"
       inkscape:transform-center-x="12.250274"
       inkscape:transform-center-y="4.4710536" /><path
       style="fill:#7563d5;fill-opacity:1;stroke:none;stroke-width:5.27654;stroke-linecap:round;stroke-linejoin:round;stroke-dashoffset:30.918"
       d="m 224.58286,233.87569 c 0,0 -5.64883,-7.2251 -5.66575,-10.88917 -0.0174,-3.66411 4.77622,-8.51601 4.77622,-8.51601 0,0 5.78046,5.3847 6.08871,9.14428 0.3082,3.75955 -5.19918,10.2609 -5.19918,10.2609 z"
       id="path144286"
       sodipodi:nodetypes="czczc"
       inkscape:transform-center-x="0.65220671"
       inkscape:transform-center-y="12.817798" /><path
       style="fill:#917cff;fill-opacity:1;stroke:none;stroke-width:5.27654;stroke-linecap:round;stroke-linejoin:round;stroke-dashoffset:30.918"
       d="m 224.66901,233.57268 c 0,0 4.76824,-7.83422 8.19085,-9.14245 3.42249,-1.30867 9.65335,1.46546 9.65335,1.46546 0,0 -2.99972,7.30825 -6.40894,8.92277 -3.40921,1.61448 -11.43526,-1.24578 -11.43526,-1.24578 z"
       id="path144288"
       sodipodi:nodetypes="czczc"
       inkscape:transform-center-x="-11.661558"
       inkscape:transform-center-y="5.4540614" /><path
       style="fill:none;fill-opacity:1;stroke:#e0f3fd;stroke-width:2.6874;stroke-linecap:round;stroke-linejoin:round;stroke-dashoffset:30.918;stroke-opacity:1"
       d="m 150.46981,77.023143 c 0,0 15.39213,-6.679987 27.8223,-6.962732 12.43017,-0.282744 29.43556,6.65521 29.43556,6.65521"
       id="path145971"
       sodipodi:nodetypes="czc" /><path
       style="fill:none;fill-opacity:1;stroke:#e0f3fd;stroke-width:2.25;stroke-linecap:round;stroke-linejoin:round;stroke-dasharray:none;stroke-dashoffset:30.918;stroke-opacity:1"
       d="m 153.74624,79.659321 -1.00983,7.321245 7.57371,-2.27211 0.25246,-7.068795 6.81633,-2.019652 v 6.816337 h 6.81633 l 0.25246,-7.826167 7.32125,-1.009823 0.75737,8.331075 6.31142,0.757373 0.25246,-8.331083 6.05897,2.524575 0.50491,5.55405 5.80651,2.777025 -0.25246,-5.55405 5.80651,0.757365 0.75737,5.049143"
       id="path145973" /></g></svg>
