<?xml version="1.0" encoding="UTF-8" standalone="no"?>
<!-- Created with Inkscape (http://www.inkscape.org/) -->

<svg
   version="1.1"
   id="svg2"
   width="666.66669"
   height="666.66669"
   viewBox="0 0 666.66669 666.66669"
   sodipodi:docname="customer care n care.svg"
   xml:space="preserve"
   inkscape:version="1.2.2 (732a01da63, 2022-12-09)"
   xmlns:inkscape="http://www.inkscape.org/namespaces/inkscape"
   xmlns:sodipodi="http://sodipodi.sourceforge.net/DTD/sodipodi-0.dtd"
   xmlns="http://www.w3.org/2000/svg"
   xmlns:svg="http://www.w3.org/2000/svg"><defs
     id="defs6" /><sodipodi:namedview
     id="namedview4"
     pagecolor="#505050"
     bordercolor="#eeeeee"
     borderopacity="1"
     inkscape:showpageshadow="0"
     inkscape:pageopacity="0"
     inkscape:pagecheckerboard="0"
     inkscape:deskcolor="#505050"
     showgrid="false"
     inkscape:zoom="0.37135056"
     inkscape:cx="779.58682"
     inkscape:cy="57.896776"
     inkscape:window-width="1920"
     inkscape:window-height="991"
     inkscape:window-x="-9"
     inkscape:window-y="-9"
     inkscape:window-maximized="1"
     inkscape:current-layer="g10" /><g
     id="g10"
     inkscape:groupmode="layer"
     inkscape:label="Page 1"
     transform="matrix(1.3333333,0,0,-1.3333333,0,666.66667)"><path
       style="fill:#e0f3fd;fill-opacity:1;stroke:none;stroke-width:3.34036;stroke-linecap:round;stroke-linejoin:round;stroke-dashoffset:30.918"
       d="m 140.96507,130.47763 c -23.30338,4.31672 -62.1464,4.28348 -79.83203,19.11472 -26.96566,26.57224 -29.26745,72.63211 -7.87076,100.07116 16.57068,27.38344 50.20508,40.80792 64.6527,59.03073 14.44764,18.2228 1.66607,49.06326 16.30374,69.1503 14.62967,18.46192 73.54661,29.25117 106.25533,30.35867 32.70872,1.10748 83.13854,-0.0593 104.00653,-38.22944 20.868,-38.17019 55.98087,-33.90144 78.7076,-49.47338 17.49595,-13.77617 13.75156,-35.90103 7.87079,-62.96612 -5.88078,-27.06509 26.26623,-41.26312 29.23423,-69.71249 2.9681,-28.44936 -41.13555,-61.41897 -71.06591,-65.14699 -23.63401,-2.7054 -57.3633,16.53237 -80.72737,17.9224 -23.36408,1.39002 -42.58992,1.03832 -60.7173,-2.24879 -18.12738,-3.28713 -28.99264,-14.00027 -47.2246,-15.74153 -18.23197,-1.74127 -36.28955,3.55404 -59.59295,7.87076 z"
       id="path130206"
       sodipodi:nodetypes="zcczczzczzczzzz"
       inkscape:export-filename="..\..\Users\user\Pictures\admin-customer-care.svg"
       inkscape:export-xdpi="96"
       inkscape:export-ydpi="96" /><path
       style="fill:#c7e6f6;fill-opacity:1;stroke:none;stroke-width:3.34036;stroke-linecap:round;stroke-linejoin:round;stroke-dashoffset:30.918;stroke-opacity:1"
       d="m 73.25833,161.83564 -3.18026,97.79328 28.62242,3.18027 1.59013,-63.60538 7.95068,-0.79507 -6.36055,89.04754 19.08162,6.36053 7.95068,-7.1556 1.59013,-61.22018 3.97534,-1.59014 v 75.53139 l 22.2619,6.36054 7.95068,-6.36054 -2.38523,-76.32646 8.74576,-0.79506 -1.59014,48.4991 13.51615,3.97534 h 7.15558 l -2.38519,34.1879 13.51614,10.33587 16.6964,-4.7704 -0.79505,-13.51614 10.33586,6.36053 v 64.40046 l 25.44217,12.72107 34.18788,-11.13094 -3.97531,-62.01525 27.03229,-12.72108 0.79506,-33.39282 21.46682,-7.15561 -1.59013,20.67175 23.85205,8.74574 17.49144,-8.74574 0.79506,-15.10628 10.33585,-1.59014 -0.795,31.00763 19.87664,7.15561 10.33591,-8.74574 -0.7951,-56.44978 13.51616,-5.56547 1.59012,-13.51615 5.56547,-3.97534 v 11.92601 l 9.54089,-0.79507 6.28805,-9.1915 4.0478,-35.33226 -0.3735,-15.15038 c -13.32368,-14.34191 -32.79059,-29.52543 -49.29414,-31.31627 -16.50355,-1.79084 -24.77688,-3.51637 -37.31079,-1.89845 -28.61906,3.69424 -54.0219,13.76629 -87.377,10.398 -25.24952,-2.54976 -58.28967,-18.40639 -82.24705,-18.52195 -34.4318,-0.16609 -77.32442,14.4522 -94.81733,13.25384 -17.49291,-1.19837 -27.82736,26.53879 -27.82736,26.53879 z"
       id="path130208"
       sodipodi:nodetypes="ccccccccccccccccccccccccccccccccccccccccccccccczssszc" /></g></svg>
